<?xml version="1.0" encoding="UTF-8"?>
<svg id="Layer_1" data-name="Layer 1" xmlns="http://www.w3.org/2000/svg" viewBox="0 0 548.83 609.95">
  <defs>
    <style>
      .cls-1 {
        fill: #9bdae8;
      }

      .cls-1, .cls-2, .cls-3, .cls-4, .cls-5, .cls-6, .cls-7 {
        stroke-width: 0px;
      }

      .cls-2 {
        fill: #ed1c24;
      }

      .cls-3 {
        fill: #007bc1;
      }

      .cls-4 {
        fill: #22215f;
      }

      .cls-5 {
        fill: #ebf2f4;
      }

      .cls-6 {
        fill: #fff;
      }

      .cls-7 {
        fill: #869ab2;
      }
    </style>
  </defs>
  <path class="cls-2" d="M542.4,92.21L277.54.53c-2.03-.7-4.22-.7-6.25,0L6.43,92.21c-4.42,1.53-7.08,6.03-6.29,10.64l61.12,356.55c.43,2.51,1.85,4.75,3.94,6.21l203.74,142.62c1.64,1.15,3.56,1.73,5.48,1.73s3.83-.58,5.48-1.73l203.74-142.62c2.09-1.46,3.51-3.7,3.94-6.21l61.12-356.55c.79-4.61-1.87-9.11-6.29-10.64Z"/>
  <path class="cls-5" d="M499.27,117.71l-221.73-76.75c-2.02-.7-4.22-.7-6.25,0L49.56,117.71c-4.42,1.53-7.08,6.03-6.29,10.64l52.95,308.89c.43,2.51,1.85,4.75,3.94,6.21l168.78,118.15c1.64,1.15,3.56,1.73,5.48,1.73s3.83-.58,5.48-1.73l168.78-118.15c2.09-1.46,3.51-3.7,3.94-6.21l52.95-308.89c.79-4.61-1.87-9.11-6.29-10.64Z"/>
  <path class="cls-7" d="M291.67,266.36c27.82-7.6,48.33-33.07,48.33-63.26,0-36.16-29.42-65.58-65.58-65.58s-65.58,29.42-65.58,65.58c0,30.19,20.51,55.66,48.33,63.26-47.63,8.22-83.98,49.79-83.98,99.73v50.94c0,5.28,4.28,9.55,9.55,9.55h183.37c5.28,0,9.55-4.27,9.55-9.55v-50.94c0-49.94-36.36-91.52-83.98-99.73Z"/>
  <path class="cls-3" d="M271.29.53L6.43,92.21c-4.42,1.53-7.08,6.03-6.29,10.64l61.12,356.55c.43,2.51,1.85,4.75,3.94,6.21l203.74,142.62c1.64,1.15,3.56,1.73,5.48,1.73V0c-1.06,0-2.11.18-3.12.53Z"/>
  <path class="cls-1" d="M271.29,40.95L49.56,117.71c-4.42,1.53-7.08,6.03-6.29,10.64l52.95,308.89c.43,2.51,1.85,4.75,3.94,6.21l168.78,118.15c1.64,1.15,3.56,1.73,5.48,1.73V40.42c-1.05,0-2.11.18-3.12.53Z"/>
  <path class="cls-4" d="M208.84,203.1c0,30.19,20.51,55.66,48.33,63.26-47.63,8.22-83.98,49.79-83.98,99.73v50.94c0,5.28,4.28,9.55,9.55,9.55h91.68V137.53c-36.16,0-65.58,29.42-65.58,65.58Z"/>
  <g>
    <path class="cls-6" d="M124.97,374.16c.54,0,1.08-.04,1.62-.14,5.2-.89,8.69-5.83,7.8-11.03l-14.84-86.59c-.89-5.2-5.83-8.69-11.03-7.8-5.2.89-8.69,5.83-7.8,11.03l14.84,86.59c.8,4.65,4.84,7.94,9.4,7.94Z"/>
    <path class="cls-6" d="M96.15,206.07c.54,0,1.08-.04,1.62-.14,5.2-.89,8.69-5.83,7.8-11.03l-8.23-47.98,53.79-18.62c4.98-1.72,7.63-7.16,5.9-12.15-1.72-4.98-7.16-7.62-12.15-5.9l-61.45,21.27c-4.42,1.53-7.08,6.03-6.29,10.64l9.59,55.97c.8,4.65,4.84,7.94,9.4,7.94Z"/>
    <path class="cls-6" d="M173.49,120.01c1.04,0,2.09-.17,3.12-.53l40.75-14.11c4.98-1.72,7.63-7.16,5.9-12.15-1.72-4.98-7.16-7.63-12.15-5.9l-40.75,14.11c-4.98,1.72-7.63,7.16-5.9,12.15,1.37,3.95,5.07,6.43,9.02,6.43Z"/>
  </g>
</svg>